<?xml version="1.0" encoding="UTF-8"?>
<svg version="1.1" xmlns="http://www.w3.org/2000/svg" width="512" height="512">
<path d="M0 0 C8.65456215 7.41011531 16.3993521 15.5233909 24 24 C22.62828214 27.11808245 21.09368553 29.09854729 18.5859375 31.390625 C17.91127441 32.01340332 17.23661133 32.63618164 16.54150391 33.27783203 C15.82655762 33.92864746 15.11161133 34.57946289 14.375 35.25 C12.91083185 36.60609474 11.44728228 37.96285768 9.984375 39.3203125 C8.65635086 40.5469842 7.3282387 41.77356062 6 43 C-14.64612297 62.15284993 -28.65607763 89.01134016 -30.12426758 117.40307617 C-31.21416632 152.75561224 -20.47064354 183.77651974 3.76416016 209.80444336 C13.43758992 219.79246989 25.76604191 227.58868064 39 232 C28.35524297 270.84402566 6.36465528 309.2581365 -21.00390625 338.80859375 C-22.66624962 340.63359303 -24.1741276 342.49173548 -25.6875 344.4375 C-37.43737384 358.12416624 -55.81679177 368.67371843 -73.6875 370.8125 C-92.51600578 371.88230146 -111.13114077 364.934637 -128.78173828 359.15917969 C-158.26968564 349.51799303 -182.2187784 350.65427409 -211.1875 361.5 C-211.84431763 361.74590881 -212.50113525 361.99181763 -213.17785645 362.24517822 C-213.82975952 362.48927429 -214.4816626 362.73337036 -215.15332031 362.98486328 C-234.76636203 370.3240561 -255.85095924 375.9668506 -276 367 C-284.06173867 363.21285765 -291.24957078 358.80342656 -298 353 C-298.79921875 352.32195312 -299.5984375 351.64390625 -300.421875 350.9453125 C-321.09409561 332.90526905 -335.77497958 309.75809536 -349 286 C-349.42812988 285.23171875 -349.85625977 284.4634375 -350.29736328 283.671875 C-384.81391982 221.19943099 -402.81113514 145.33451665 -383.21386719 75.18603516 C-372.95416589 40.45663908 -352.48577627 6.88645029 -320 -10.94458008 C-280.82900246 -31.66540237 -239.02240101 -21.86636001 -198.60374451 -10.8338623 C-169.91359665 -3.01157883 -148.48607425 -8.87262831 -120.49072266 -17.80444336 C-78.62106146 -30.98709575 -34.82034543 -28.89947698 0 0 Z " fill="#000000" transform="translate(432,141)"/>
<path d="M0 0 C3.24700194 11.74354058 1.00845185 25.48781933 -2 37 C-2.24943359 37.96220459 -2.24943359 37.96220459 -2.50390625 38.94384766 C-5.35354432 49.6537374 -9.6884378 59.29613213 -15 69 C-15.51691406 69.94875 -16.03382813 70.8975 -16.56640625 71.875 C-20.12154514 78.07469724 -24.38197183 83.55853665 -29 89 C-29.70125 89.83660156 -30.4025 90.67320313 -31.125 91.53515625 C-43.66802831 106.0268336 -59.63692571 117.64303357 -78.6875 121.1875 C-79.55020508 121.35475586 -80.41291016 121.52201172 -81.30175781 121.69433594 C-88.51934186 123.03608347 -95.65741259 123.75686797 -103 124 C-101.69089038 88.3380483 -91.78252527 54.82563987 -66 29 C-51.22221685 15.58137751 -33.08467664 7.268787 -14.1875 1.4375 C-13.34566162 1.17372559 -12.50382324 0.90995117 -11.63647461 0.63818359 C-7.43386265 -0.59253565 -4.3020497 -1.45728661 0 0 Z " fill="#000000" transform="translate(354,1)"/>
</svg>
