<?xml version="1.0" encoding="UTF-8"?>
<svg version="1.1" xmlns="http://www.w3.org/2000/svg" width="2560" height="750">
<path d="M0 0 C9.89876478 8.39335288 17.98665767 18.02427013 25.68505859 28.41552734 C29.20153723 33.15555993 32.81196827 37.80252164 36.51757812 42.39599609 C41.9143924 49.08923229 47.17213956 55.87722753 52.39257812 62.70849609 C53.99611863 64.79231142 55.60029505 66.87563754 57.20507812 68.95849609 C67.27401641 82.04415171 77.28039012 95.17774053 87.28320312 108.31396484 C89.99953343 111.88092185 92.71838063 115.44593676 95.43945312 119.00927734 C102.72833282 128.55796624 109.97506865 138.13598856 117.17236328 147.75390625 C121.29539603 153.25893671 125.46094505 158.72675028 129.66601562 164.16943359 C137.47986361 174.29314889 145.23591905 184.46532646 152.89257812 194.70849609 C160.34748252 204.68137578 167.93344006 214.55602016 175.48779297 224.45361328 C189.25589643 242.49323436 189.25589643 242.49323436 195.95507812 251.39599609 C196.44419678 252.04528076 196.93331543 252.69456543 197.43725586 253.36352539 C200.1294093 256.95726323 202.70085646 260.60486517 205.20507812 264.33349609 C208.43675357 269.03051457 212.23799489 273.13120448 217.39257812 275.70849609 C223.85251901 276.52604048 229.14717023 275.6526693 234.39257812 271.70849609 C239.55872101 264.29925799 238.92483269 256.44036984 238.83081055 247.76269531 C238.82804151 246.14518942 238.82705722 244.52767964 238.82771301 242.91017151 C238.82459573 238.52634542 238.79696328 234.14297422 238.76522231 229.75927496 C238.73631995 225.13822564 238.7311873 220.51715143 238.72370911 215.89602661 C238.70611508 207.11689673 238.66902037 198.3379695 238.62411243 189.55894101 C238.54492815 173.9301705 238.50203826 158.30126836 238.46117097 142.67235768 C238.44617403 137.21022533 238.42380493 131.7481882 238.39528185 126.28611052 C238.31304375 110.22409572 238.28199654 94.16526957 238.70239258 78.10742188 C238.72502513 76.94576445 238.74765768 75.78410702 238.77097607 74.58724785 C239.60023411 49.01566689 250.23938246 24.87372872 268.94726562 7.31005859 C285.51202165 -6.75798058 305.50630777 -16.04839389 327.39257812 -17.29150391 C328.23433594 -17.34435547 329.07609375 -17.39720703 329.94335938 -17.45166016 C356.60255092 -18.29973956 381.65572052 -8.43226383 401.34179688 9.37646484 C417.21217286 24.72721051 428.62930692 45.77463606 429.53403664 68.21754456 C429.54566369 70.18061806 429.54566369 70.18061806 429.55752563 72.18334961 C429.56317113 72.91987855 429.56881662 73.65640749 429.57463318 74.41525549 C429.59233766 76.88929805 429.60307127 79.36332027 429.61376953 81.83740234 C429.62498849 83.63336449 429.63659046 85.42932429 429.64854145 87.22528172 C429.68008819 92.18539328 429.70512296 97.14551887 429.72869372 102.10567403 C429.74429609 105.30285314 429.76151443 108.50001957 429.77926826 111.69718742 C429.86476854 127.1109506 429.93572511 142.52475593 430.00136137 157.93861532 C430.01751664 161.69420277 430.0342057 165.44978748 430.05105972 169.20537186 C430.41776772 251.23356735 430.43432818 333.25993555 430.12513399 440.25570261 C430.09180669 451.02250282 430.06223751 461.7893079 430.03471389 472.5561244 C429.99613965 487.60790254 429.95004636 502.65963082 429.89146155 517.71134526 C429.88565907 519.20668825 429.87986602 520.70203128 429.87408257 522.19737434 C429.87124511 522.93078658 429.86840765 523.66419882 429.86548421 524.41983567 C429.8462822 529.50598771 429.83186944 534.59213916 429.81962776 539.6783123 C429.80330712 546.42934245 429.77685203 553.18025793 429.74344897 559.93122864 C429.73287299 562.37717548 429.72554225 564.82313902 429.72183347 567.26910591 C429.67104788 597.4829824 426.10805332 624.49931117 404.05273438 647.10693359 C388.82315313 661.57133329 369.46400787 668.87946922 349.39257812 673.70849609 C348.4309375 673.94439453 347.46929688 674.18029297 346.47851562 674.42333984 C323.10341572 679.38059787 298.31513261 676.80840319 277.80664062 664.06396484 C263.62246803 654.64700274 253.50289051 640.57768044 243.34960938 627.19799805 C239.76520412 622.47772667 236.11421783 617.8211633 232.39257812 613.20849609 C227.62751072 607.29605062 222.9869588 601.2982038 218.38867188 595.25537109 C214.4233057 590.04670721 210.41874666 584.87027919 206.39257812 579.70849609 C200.21348017 571.78162786 194.09599076 563.8093835 188.00146484 555.81738281 C185.30171966 552.27862728 182.59688124 548.74376886 179.89257812 545.20849609 C178.80922063 543.7918479 177.72588729 542.37518124 176.64257812 540.95849609 C176.10632812 540.25724609 175.57007813 539.55599609 175.01757812 538.83349609 C118.14257812 464.45849608 118.14257812 464.45849608 116.5168457 462.33251953 C115.43597795 460.91908958 114.35508611 459.50567806 113.27416992 458.09228516 C110.52791308 454.50124908 107.78210509 450.90987129 105.03710938 447.31787109 C99.30294552 439.81516422 93.56450368 432.31593281 87.79882812 424.83740234 C86.12595317 422.66212177 84.45902202 420.48322934 82.79882812 418.29833984 C80.35308796 415.08334907 77.88048481 411.89099602 75.39257812 408.70849609 C74.76480469 407.89896484 74.13703125 407.08943359 73.49023438 406.25537109 C69.14452312 400.93409201 64.9087534 397.487147 58.01367188 396.29833984 C51.22599699 395.88406861 45.99814954 397.97144849 40.39257812 401.70849609 C36.13123065 405.86330988 34.5658221 410.31063436 34.13924503 416.21486759 C34.13761073 417.51681788 34.13597643 418.81876818 34.1342926 420.16017151 C34.1306169 420.88960415 34.12694119 421.6190368 34.1231541 422.37057346 C34.11320901 424.80433131 34.11731815 427.23785909 34.12133789 429.67163086 C34.11694832 431.42167401 34.11164533 433.17171507 34.10549927 434.92175293 C34.09400784 438.68833759 34.0885404 442.45486607 34.08761787 446.22146797 C34.08567123 452.19684542 34.06758056 458.17210779 34.04685974 464.14744568 C33.99773212 479.00211419 33.96690836 493.85681422 33.94555664 508.71154785 C33.92896014 520.2349848 33.90591091 531.75832339 33.86253589 543.28169483 C33.84446618 548.23819406 33.83212504 553.19455944 33.83383369 558.15109444 C33.85038253 626.31568253 33.85038253 626.31568253 11.70898438 649.43115234 C-9.37079426 670.1554541 -35.11103716 676.40466257 -64.08740234 676.17895508 C-73.70661528 675.9409186 -82.54048419 674.97212809 -91.60742188 671.70849609 C-92.28015137 671.46711914 -92.95288086 671.22574219 -93.64599609 670.97705078 C-116.80327639 662.34397325 -135.75745105 645.63068415 -146.48242188 623.33349609 C-151.16016525 612.96653286 -153.69660264 602.39551934 -154.20062733 591.03471756 C-154.25958081 589.80546983 -154.25958081 589.80546983 -154.31972526 588.55138882 C-154.7484249 578.78270147 -154.7495154 569.01514274 -154.74113464 559.23895264 C-154.74300748 557.13784598 -154.74531005 555.03673967 -154.74799997 552.9356339 C-154.75406535 547.21551725 -154.75399066 541.49541533 -154.75280559 535.77529621 C-154.75260026 529.58578076 -154.75813272 523.39626988 -154.76286316 517.20675659 C-154.77113986 505.10374376 -154.7739296 493.00073713 -154.77447554 480.89772221 C-154.77493644 471.05896306 -154.77700178 461.22020548 -154.78017616 451.38144684 C-154.78107379 448.54167406 -154.7819636 445.70190128 -154.78285104 442.8621285 C-154.78307209 442.15602813 -154.78329314 441.44992776 -154.78352088 440.72243042 C-154.78966654 420.8883727 -154.79362228 401.05431552 -154.7931776 381.22025681 C-154.79316203 380.47389637 -154.79314645 379.72753594 -154.7931304 378.95855852 C-154.7930473 375.17629664 -154.79294826 371.39403475 -154.79284569 367.61177287 C-154.79282574 366.86069193 -154.7928058 366.109611 -154.79278525 365.33577004 C-154.79274481 363.81690825 -154.79270301 362.29804646 -154.79265986 360.77918467 C-154.79204669 337.13191776 -154.79956492 313.48466516 -154.81323242 289.83740234 C-154.8286046 263.23020946 -154.83719808 236.62302598 -154.8362692 210.01582837 C-154.83619457 207.17731301 -154.83614586 204.33879765 -154.83611488 201.50028229 C-154.83610323 200.8014367 -154.83609157 200.1025911 -154.83607957 199.38256837 C-154.83604885 188.15883455 -154.84242174 176.93511322 -154.85104715 165.71138311 C-154.85953785 154.42958777 -154.86033125 143.14781043 -154.85393783 131.86601207 C-154.85067516 125.75985181 -154.85060703 119.65373667 -154.85929108 113.54758072 C-154.86716734 107.95184743 -154.86571313 102.35619497 -154.85700694 96.76046363 C-154.85547453 94.74260807 -154.85727833 92.72474646 -154.86286702 90.70689806 C-154.93406817 63.16240861 -150.85510057 37.80368321 -131.60742188 16.70849609 C-130.98222656 16.00208984 -130.35703125 15.29568359 -129.71289062 14.56787109 C-98.28602073 -19.04233924 -36.94674646 -29.68534155 0 0 Z " fill="#144740" transform="translate(1068.607421875,73.29150390625)"/>
<path d="M0 0 C2.79095024 2.71129415 5.5616915 5.44139337 8.32324219 8.18261719 C9.19110352 9.04113281 10.05896484 9.89964844 10.953125 10.78417969 C16.87351019 16.73404209 22.21786993 22.99859253 27.44824219 29.55761719 C28.44896717 30.76598803 29.45242083 31.97211041 30.45996094 33.17480469 C46.88391616 53.04583706 60.36042668 75.37850476 71.50097656 98.59375 C72.45238942 100.56621521 73.42550062 102.52684113 74.40136719 104.48730469 C113.48416634 183.97398453 117.88866523 280.94366929 90.25634766 364.59277344 C74.72093209 410.02794087 50.94462128 451.99510324 18.41308594 487.40917969 C16.60827775 489.382628 14.86872753 491.39625551 13.13574219 493.43261719 C5.88098297 501.75028299 -2.12262809 509.44410481 -10.55175781 516.55761719 C-11.45796875 517.35296875 -12.36417969 518.14832031 -13.29785156 518.96777344 C-58.362982 558.2743812 -115.1021361 584.35288552 -173.86425781 594.43261719 C-174.96938721 594.62380127 -176.0745166 594.81498535 -177.21313477 595.01196289 C-201.96424728 598.93955065 -226.85733315 598.87293897 -251.84107471 598.85919976 C-255.76000152 598.85811475 -259.67891269 598.86305095 -263.59783608 598.86780518 C-272.84966032 598.87881206 -282.10144391 598.87938576 -291.35327148 598.87329102 C-300.8414185 598.86723632 -310.32941778 598.87962052 -319.81753963 598.90086108 C-328.02803301 598.91855339 -336.23847965 598.92446713 -344.44899136 598.92122334 C-349.32519613 598.91942508 -354.20129506 598.92190052 -359.07748222 598.93593788 C-363.65869698 598.94863994 -368.23968244 598.94645705 -372.82089424 598.93352699 C-374.48557747 598.93118969 -376.15027752 598.93379141 -377.81494141 598.94215012 C-406.87803217 599.07739108 -433.16790045 592.28146186 -454.67675781 571.80761719 C-475.30501433 550.63651182 -478.88080178 521.77120482 -478.79899597 493.6346283 C-478.80058677 491.64013652 -478.80305304 489.64564528 -478.80631238 487.65115553 C-478.81269271 482.20162614 -478.80668327 476.75217166 -478.7985481 471.30264723 C-478.79194398 465.41187604 -478.79692578 459.52111285 -478.8004303 453.63034058 C-478.80546404 442.09610521 -478.7998392 430.56189859 -478.79058 419.0276668 C-478.78322346 409.63758444 -478.78028681 400.24750894 -478.78045082 390.85742378 C-478.78045847 390.18860487 -478.78046611 389.51978596 -478.78047399 388.83069981 C-478.7805149 386.11503072 -478.78058053 383.39936164 -478.7806798 380.68369255 C-478.78158534 355.21769654 -478.77165365 329.75171541 -478.75625014 304.28572456 C-478.74266292 281.74004141 -478.73638741 259.19436885 -478.73706055 236.64868164 C-478.73710096 235.2041677 -478.73714132 233.75965376 -478.73718163 232.31513982 C-478.73720198 231.60095171 -478.73722233 230.88676359 -478.73724329 230.15093341 C-478.73734412 226.55457347 -478.73743469 222.95821354 -478.73751354 219.3618536 C-478.73753026 218.65210579 -478.73754697 217.94235797 -478.73756419 217.21110265 C-478.73793116 198.30358629 -478.73337065 179.39607123 -478.72718698 160.48855597 C-478.72696671 159.81392452 -478.72674643 159.13929307 -478.72651949 158.44421825 C-478.72563141 155.73219653 -478.72474292 153.02017482 -478.72382853 150.30815311 C-478.72047014 140.28281182 -478.71910633 130.25747189 -478.71861839 120.23213005 C-478.71793002 108.79451446 -478.71338095 97.35690715 -478.70428558 85.91929507 C-478.69972503 80.10007048 -478.69660028 74.28085635 -478.69787979 68.46162987 C-478.70128116 47.64288008 -478.66147214 26.82869119 -478.16767883 6.01490784 C-478.15255614 5.27901981 -478.13743344 4.54313178 -478.12185248 3.78494411 C-477.60342369 -20.41882921 -474.20704625 -42.75521075 -457.55175781 -61.44238281 C-456.8853125 -62.21453125 -456.21886719 -62.98667969 -455.53222656 -63.78222656 C-441.17150002 -79.36854387 -421.45528413 -84.09540894 -401.13769531 -85.66113281 C-399.86150833 -85.76399597 -398.58532135 -85.86685913 -397.27046204 -85.97283936 C-393.8586828 -86.24730212 -390.44634144 -86.51399083 -387.03377914 -86.77851868 C-384.91745687 -86.94310615 -382.80131132 -87.1098038 -380.68521118 -87.27722168 C-360.65232396 -88.86177053 -340.62101886 -90.39305075 -320.55175781 -91.44238281 C-319.09672852 -91.52697754 -319.09672852 -91.52697754 -317.61230469 -91.61328125 C-220.16733994 -97.24151059 -116.15031261 -86.70360497 0 0 Z M-283.08691406 120.70605469 C-292.81839129 133.0066419 -292.21167045 149.52650513 -291.04905701 164.32322693 C-290.41865152 173.13280433 -290.4329727 181.91760791 -290.4699707 190.74536133 C-290.47353653 192.51793837 -290.47661983 194.29051644 -290.47926331 196.06309509 C-290.48576123 199.84918007 -290.49528504 203.63524046 -290.50715828 207.42131233 C-290.52561817 213.42063487 -290.5350936 219.41995184 -290.54307556 225.41929626 C-290.56710299 242.46844022 -290.6030809 259.51754838 -290.64770508 276.56665039 C-290.67233403 286.00657417 -290.68964544 295.44648419 -290.69926447 304.88643545 C-290.70576477 310.83781624 -290.72123173 316.78908202 -290.74358189 322.74042332 C-290.75539585 326.45476807 -290.75868408 330.16908574 -290.75967979 333.88344765 C-290.76180855 335.59173632 -290.7673345 337.30002507 -290.77671051 339.00828934 C-290.88023784 358.64655925 -289.44136915 378.204274 -275.74316406 393.58886719 C-259.69377846 408.80408514 -237.59378398 409.16038539 -216.86328125 408.69384766 C-202.99691985 408.12340902 -189.63511446 405.07277117 -176.55175781 400.55761719 C-175.58761963 400.22721436 -175.58761963 400.22721436 -174.60400391 399.89013672 C-140.52204221 387.9271336 -115.56623181 361.33853742 -99.92675781 329.43261719 C-90.92830748 309.82254167 -85.22561617 288.17968097 -84.55175781 266.55761719 C-84.51179687 265.37941406 -84.47183594 264.20121094 -84.43066406 262.98730469 C-83.68476606 218.84769335 -98.24130938 174.28942931 -129.05566406 142.12011719 C-129.879375 141.27449219 -130.70308594 140.42886719 -131.55175781 139.55761719 C-132.49341797 138.50574219 -132.49341797 138.50574219 -133.45410156 137.43261719 C-154.79052473 114.27536141 -188.85359299 102.44751719 -219.46972656 100.28027344 C-240.81786324 99.70824405 -267.88964506 104.47179556 -283.08691406 120.70605469 Z " fill="#144640" transform="translate(478.5517578125,148.4423828125)"/>
<path d="M0 0 C8.67865661 -0.0003553 17.35727411 -0.01210895 26.03591824 -0.02593523 C34.57532851 -0.03903799 43.11472119 -0.04437518 51.65414143 -0.04373616 C56.68092557 -0.04348444 61.70766043 -0.04615942 66.73443413 -0.05691421 C71.40416447 -0.06665718 76.07379825 -0.06663255 80.74353218 -0.05939758 C82.43609702 -0.05836352 84.1286682 -0.06064311 85.82122231 -0.06675804 C100.25859589 -0.11551296 114.87106334 0.41320805 128.73867607 4.81011117 C129.98560234 5.19707161 129.98560234 5.19707161 131.25771904 5.59184945 C154.54458755 13.16935801 172.6094146 29.20103233 183.80117607 50.87261117 C195.41552068 74.33529406 196.49177081 102.41022738 188.61367607 127.18511117 C181.72199738 147.16859469 167.79293243 163.85357968 148.86367607 173.43511117 C130.57085964 182.28689172 112.57748495 185.24659946 92.43398857 185.76714242 C91.67925192 185.7878184 90.92451527 185.80849438 90.14690781 185.82979691 C75.07526464 186.23039475 60.0061245 186.24621161 44.93008232 186.21245492 C43.76579264 186.2098856 42.60150295 186.20731629 41.40193176 186.20466912 C30.52104914 186.17828478 19.64022875 186.13870582 8.75942802 186.0891639 C2.73327307 186.06227728 -3.29284604 186.04531684 -9.31904984 186.0342952 C-11.58305472 186.02814506 -13.847053 186.01821664 -16.11102295 186.00421631 C-41.42673169 185.08893453 -41.42673169 185.08893453 -63.36288643 196.04057992 C-69.91510225 204.12594969 -71.56521378 213.98838986 -71.38632393 224.18511117 C-70.25679079 233.12267918 -67.23291271 240.95130947 -60.34726143 246.96636117 C-45.4984461 257.67010083 -25.27457212 255.3326247 -7.87260628 255.41490662 C-4.4625376 255.43159664 -1.05256715 255.4548416 2.35745049 255.47980416 C12.04306777 255.54980508 21.72872468 255.61031855 31.41445732 255.66191781 C37.37113752 255.6941078 43.3277009 255.73547128 49.28428459 255.78211319 C51.52603326 255.79789039 53.76780857 255.81032018 56.00959587 255.81902039 C67.4210334 255.86394151 78.75265636 256.1272981 90.12734795 257.09551156 C91.05568192 257.17410377 91.98401588 257.25269598 92.94048119 257.33366978 C113.60085616 259.27078109 134.19698331 266.7166668 148.61367607 282.18511117 C166.75500178 305.11455727 170.96425012 333.2848571 167.86367607 361.74761117 C165.63115527 379.52501688 159.82977482 396.73955494 147.61367607 410.18511117 C146.96012138 410.93018929 146.3065667 411.67526742 145.63320732 412.44292367 C134.03833836 424.9037118 119.03649427 431.05075112 102.67617607 434.43511117 C101.49752983 434.68019417 101.49752983 434.68019417 100.29507256 434.93022835 C76.43431666 439.49087818 50.86099822 438.28306646 26.63711357 438.17729867 C25.67881897 438.17346421 24.72052437 438.16962975 23.73319054 438.1656791 C14.78733473 438.12889048 5.84156808 438.08318032 -3.10409737 438.01372445 C-8.05997971 437.97589276 -13.01574871 437.95301584 -17.97175407 437.93941796 C-19.831897 437.93144816 -21.69202593 437.91796251 -23.55208397 437.89848626 C-36.77700786 437.7619485 -50.35221283 437.77816937 -61.38632393 446.18511117 C-68.48910329 453.16328037 -70.50848747 461.47197722 -70.76132393 471.18511117 C-70.50563341 481.43496598 -67.81322285 490.18915123 -60.85898018 497.87261117 C-51.88309943 506.32049893 -40.53820238 507.34158547 -28.80429268 507.72417367 C-27.52934441 507.76611855 -26.25439613 507.80806344 -24.94081306 507.85127938 C-10.7347023 508.27656228 3.47655249 508.32011196 17.68789482 508.39604867 C18.95530636 508.40320145 20.2227179 508.41035424 21.52853584 508.41772377 C33.49006442 508.48512898 45.45157347 508.54950387 57.41323662 508.58647835 C64.01615227 508.6069715 70.61888207 508.64294693 77.22168732 508.68723595 C79.7039819 508.70123662 82.18631195 508.71008161 84.66864395 508.71329033 C114.35362251 508.7558153 142.44309397 511.68964067 165.61367607 532.18511117 C166.5321331 532.96241585 166.5321331 532.96241585 167.46914482 533.75542367 C182.23303219 547.2017101 189.77107182 568.86466929 190.77773857 588.36284554 C191.76608863 617.83214978 187.31652476 643.87687195 166.61367607 666.18511117 C145.99882059 685.22179589 120.34906913 689.72576792 93.24038506 689.92681038 C91.32505726 689.95439578 89.409748 689.98329391 87.4944582 690.0134021 C81.5343299 690.09948534 75.57426964 690.14569208 69.61367607 690.18511117 C67.72671938 690.19940613 65.83976285 690.21372108 63.95280647 690.22805703 C51.51927596 690.31595839 39.08609276 690.32755773 26.65230298 690.31943667 C21.36179327 690.31682589 16.07128489 690.31927397 10.78077507 690.32082283 C1.91102593 690.32262016 -6.95871476 690.32030368 -15.8284626 690.31548226 C-25.94296316 690.31004615 -36.05744353 690.31180763 -46.1719436 690.31730866 C-55.00573453 690.32191263 -63.83951955 690.32245544 -72.67331129 690.31987 C-77.88372759 690.31834625 -83.09413455 690.31800111 -88.30455017 690.32140648 C-108.7975208 690.33271279 -129.2906746 690.26698346 -149.78100312 689.91269577 C-151.69294276 689.88109902 -153.60495956 689.85379715 -155.51702869 689.83136499 C-183.3705192 689.48781351 -209.1754002 683.86174744 -231.38632393 666.18511117 C-232.42853096 665.39040413 -232.42853096 665.39040413 -233.49179268 664.57964242 C-253.46900295 648.43040058 -263.04038724 621.82187613 -265.90312767 597.09664261 C-266.68435438 589.04589773 -266.62058313 580.95144223 -266.69558907 572.87013924 C-266.71576936 571.02570103 -266.73625118 569.1812661 -266.75700998 567.33683431 C-266.81177035 562.33455628 -266.86009901 557.33223596 -266.90657479 552.32987478 C-266.93636493 549.15553542 -266.96767163 545.98121415 -266.99936247 542.80689323 C-267.45563659 496.78008847 -267.5668669 450.75422626 -267.58651257 404.72545397 C-267.58934815 398.1314583 -267.593593 391.53746393 -267.59801674 384.94346917 C-267.61009451 366.52019832 -267.62044276 348.09692843 -267.62389183 329.67365372 C-267.6241114 328.51798136 -267.62433096 327.36230899 -267.62455718 326.17161625 C-267.62477546 325.01424979 -267.62499374 323.85688333 -267.62521863 322.66444516 C-267.62566201 320.32156169 -267.62610857 317.97867823 -267.6265583 315.63579476 C-267.62677973 314.47380585 -267.62700116 313.31181695 -267.6272293 312.11461626 C-267.63122214 293.06880325 -267.64886121 274.02302741 -267.67191783 254.97722889 C-267.69564504 235.21361094 -267.7080928 215.45001185 -267.70925975 195.68637943 C-267.71017103 184.67048464 -267.7157927 173.6546397 -267.73407936 162.63875878 C-267.74949269 153.32702276 -267.75459006 144.01535239 -267.74634126 134.70360602 C-267.74245129 129.96976719 -267.74328641 125.23606071 -267.75739861 120.50223839 C-267.7702225 116.16150309 -267.76886706 111.82099859 -267.75680789 107.48026322 C-267.7548667 105.92224313 -267.75785508 104.36420616 -267.76665226 102.8062097 C-267.83924971 89.06773277 -266.49958977 75.25421647 -261.57382393 62.31011117 C-261.31593086 61.61015023 -261.0580378 60.91018929 -260.79232979 60.18901742 C-257.09528625 50.44094024 -252.07495391 42.16277047 -245.38632393 34.18511117 C-244.81526924 33.45679085 -244.24421455 32.72847054 -243.65585518 31.97807992 C-228.78102215 13.86820858 -204.36191098 4.20741252 -181.54942513 1.89790738 C-173.00288882 1.21129072 -164.48468361 0.9738844 -155.91366768 0.87529671 C-154.39289223 0.85500416 -152.87212 0.83446882 -151.35135078 0.81371415 C-147.21361352 0.75884718 -143.07582572 0.7103432 -138.93798637 0.66387689 C-136.29409493 0.6339939 -133.65022231 0.60274618 -131.00634956 0.5712558 C-87.33859719 0.05692674 -43.67029925 -0.00263218 0 0 Z " fill="#144740" transform="translate(1841.386323928833,57.81488883495331)"/>
<path d="M0 0 C29.14491138 -0.13582902 58.28958555 -0.17246881 87.43477571 -0.17072499 C96.0935421 -0.17107522 104.75226932 -0.18283606 113.4110232 -0.19665831 C121.93690143 -0.20976572 130.46276204 -0.21509808 138.98865026 -0.21445924 C144.00481723 -0.21420771 149.02093478 -0.21687209 154.03709126 -0.22763729 C158.69618118 -0.23738871 163.35517437 -0.23734997 168.01426792 -0.23012066 C169.70157675 -0.22908772 171.38889196 -0.23135923 173.07618999 -0.23748112 C203.07432481 -0.33920618 230.89280948 4.40626973 253.64843273 25.66673183 C273.45851969 45.77798566 279.47196063 70.34080209 279.3146925 97.78318691 C278.86107148 121.67981314 270.65174236 142.81269454 253.96093273 160.01438808 C232.1179477 180.49855601 203.79700233 184.69372574 175.10546398 185.58079433 C174.42067282 185.60209471 173.73588165 185.62339508 173.03033924 185.64534092 C158.82442947 186.06987787 144.62127152 186.07579608 130.41015148 186.04173183 C129.28791306 186.03913986 128.16567463 186.03654789 127.00942898 186.03387737 C116.5019215 186.00747787 105.99447848 185.96799654 95.48705578 185.91844082 C89.67184737 185.89156289 83.8566761 185.87459597 78.04141712 185.86357212 C75.85473567 185.85741796 73.6680611 185.84748418 71.48141575 185.83349323 C47.04574388 185.04771273 47.04574388 185.04771273 25.98046398 195.90501308 C18.8609587 204.83515798 16.95245712 215.83593312 17.96093273 227.01438808 C19.52796443 234.70627512 21.58247584 242.02908452 27.96093273 247.01438808 C37.02486457 252.77392228 46.4242564 254.26519543 56.98607922 254.62620449 C57.93604243 254.66372641 58.88600565 254.70124832 59.86475563 254.73990726 C69.99940575 255.10835213 80.13549385 255.18060214 90.2758913 255.21361828 C93.66497151 255.22570498 97.05394028 255.24521678 100.44297314 255.26673794 C110.06098166 255.32741496 119.67896881 255.38231013 129.29711437 255.41575527 C135.22948164 255.43691275 141.16162673 255.47235609 147.09386539 255.51651287 C149.32330659 255.53047887 151.55278686 255.53935031 153.78226948 255.54256725 C184.14359707 255.591067 211.06868075 259.04724695 234.02343273 280.63938808 C249.95536029 296.99187895 256.24334791 320.64446132 256.96093273 343.01438808 C257.00089367 344.0108334 257.04085461 345.00727871 257.08202648 346.03391933 C257.57278036 369.4457659 252.73768117 393.42841926 236.21581554 410.90476894 C208.95117564 438.45168024 163.37672688 436.04693207 127.31138515 436.24418354 C124.34900275 436.26098369 121.38672836 436.28421654 118.42440319 436.30908108 C110.01785424 436.3788628 101.61126817 436.44003256 93.20458508 436.49119473 C88.02138838 436.52318323 82.83833166 436.5644767 77.6552496 436.61139011 C75.70109486 436.62725361 73.74690837 436.6396459 71.7927084 436.64829731 C49.09430922 436.66851728 49.09430922 436.66851728 28.14843273 444.70188808 C20.11850461 453.19066924 18.5101996 463.27030333 18.71483898 474.54954433 C19.38179945 483.9399243 22.84497306 492.44692312 29.96483898 498.80345058 C43.0566489 508.31199231 60.24566401 507.12409571 75.68896008 507.27976894 C77.67388927 507.30500597 79.65881844 507.33024508 81.64374661 507.35556233 C83.74700275 507.38165654 85.85027339 507.40578089 87.95355892 507.42937946 C92.36979725 507.47925222 96.78592117 507.53656012 101.20205212 507.59509182 C113.74950115 507.76034566 126.29704838 507.91672063 138.84472179 508.06394863 C145.79839265 508.14560403 152.75195121 508.23379567 159.70545256 508.32881552 C163.36883597 508.37856488 167.03219134 508.4249999 170.6957159 508.46310139 C203.78572912 508.81051461 232.90181818 511.06432914 257.91015148 534.86985683 C276.35402053 554.30845141 279.73788634 580.75748299 279.24218273 606.31126308 C278.47357244 629.22865993 271.16296437 649.48614104 254.96093273 666.01438808 C254.29577648 666.71563808 253.63062023 667.41688808 252.94530773 668.13938808 C234.86954399 685.80120303 207.30883471 688.94418786 183.27660656 689.3263998 C181.60413011 689.35713526 181.60413011 689.35713526 179.89786625 689.38849163 C176.21713272 689.45386551 172.53633684 689.51211601 168.85546398 689.56907558 C167.56843893 689.59001152 166.28141388 689.61094746 164.95538807 689.63251781 C134.23575028 690.12528078 103.51663915 690.17269143 72.79377794 690.14139795 C69.89187088 690.1386793 66.98996354 690.13686735 64.08805579 690.13506705 C27.58657705 690.11216265 -8.91588331 690.06059943 -45.41598606 689.72479916 C-48.06382332 689.70221008 -50.71164835 689.6845978 -53.35953236 689.66850185 C-87.94741652 689.44666101 -123.22776176 687.90605925 -149.56641102 662.51048183 C-173.08804141 638.61450189 -177.38887033 605.74265834 -177.71606922 573.70359707 C-177.74912172 571.36282817 -177.78248701 569.02206368 -177.81611824 566.68130302 C-178.34092273 526.22490861 -178.20417149 485.75728755 -178.20632434 445.29846406 C-178.2068243 437.92878713 -178.20912674 430.55911142 -178.21182156 423.18943501 C-178.22057445 398.74888263 -178.22524753 374.30833458 -178.22449108 349.86778063 C-178.22445113 348.56192037 -178.22441117 347.25606011 -178.22437 345.91062832 C-178.22432912 344.60314184 -178.22428824 343.29565536 -178.22424612 341.94854807 C-178.22383754 320.64594025 -178.23347413 299.34335337 -178.24750837 278.04075164 C-178.26187782 256.05341066 -178.26877876 234.06607823 -178.26791459 212.07873243 C-178.26758361 199.77846367 -178.27028947 187.47821344 -178.28109264 175.17794895 C-178.29020343 164.74094039 -178.29236681 154.30395883 -178.28558322 143.86694802 C-178.28232566 138.55229035 -178.28223467 133.2376845 -178.29093647 127.92303181 C-178.29883202 123.05096033 -178.29733922 118.17898153 -178.28865234 113.30691224 C-178.28712449 111.55390856 -178.28890621 109.80089785 -178.29451241 108.04790247 C-178.38698138 77.06146975 -172.00355017 49.93178637 -150.35156727 26.82688808 C-123.5036979 0.89618195 -87.04504799 0.56291464 -52.11761642 0.35582471 C-48.51973336 0.33233417 -44.92197268 0.29851212 -41.32417136 0.26498312 C-27.54963568 0.13754434 -13.77494706 0.06521577 0 0 Z " fill="#144740" transform="translate(2281.0390672683716,57.98561191558838)"/>
<path d="M0 0 C1.58231017 1.35215597 3.14496226 2.72764229 4.6875 4.125 C5.50605469 4.85074219 6.32460938 5.57648438 7.16796875 6.32421875 C25.0742345 23.1200184 35.21495471 47.28138699 35.99923706 71.71910095 C36.08690664 74.50277149 36.16848545 77.28603139 36.24169922 80.07006836 C36.26266151 80.83705988 36.28362381 81.6040514 36.30522132 82.39428508 C36.93069959 105.95585644 36.83385034 129.52731521 36.8218255 153.09520459 C36.8202943 157.05091188 36.82039365 161.00661686 36.82131577 164.96232414 C36.821469 165.62730471 36.82162223 166.29228527 36.82178011 166.97741676 C36.82209996 168.32998594 36.82242418 169.68255512 36.8227527 171.03512429 C36.82557676 183.59818536 36.82236931 196.16123903 36.81695233 208.72429889 C36.81248609 219.41182469 36.8132648 230.09933962 36.81787109 240.78686523 C36.82327014 253.31889887 36.82530344 265.8509261 36.82225883 278.38296074 C36.82070016 284.97257472 36.82043487 291.56218272 36.82379532 298.15179634 C36.84427598 345.10764935 36.84427598 345.10764935 36.28076172 366.47241211 C36.26401846 367.17328355 36.2472752 367.87415499 36.23002458 368.59626496 C35.59101465 394.17254093 27.58273564 415.78113567 9.875 434.4375 C-12.10847545 455.32522589 -38.14997453 460.94171949 -67.60427856 460.35293579 C-90.3344312 459.70428939 -111.06469821 448.48879101 -126.5546875 432.15625 C-142.74583525 413.44647927 -149.47106483 390.08608127 -149.45294189 365.71820068 C-149.45591302 364.46789133 -149.45888414 363.21758198 -149.4619453 361.92938447 C-149.46998167 358.4701927 -149.47180299 355.01102171 -149.47254276 351.55182171 C-149.47439931 347.81602616 -149.48194989 344.08024126 -149.48867798 340.3444519 C-149.50224019 332.17856333 -149.50828336 324.01267969 -149.51268864 315.84678173 C-149.5154559 310.74073114 -149.51969426 305.63468243 -149.52419281 300.52863312 C-149.53638512 286.37238051 -149.54668295 272.21612941 -149.5500679 258.05987167 C-149.55028747 257.15437294 -149.55050703 256.2488742 -149.55073325 255.3159361 C-149.55095153 254.40834255 -149.55116981 253.500749 -149.5513947 252.56565261 C-149.55183816 250.72671111 -149.55228472 248.88776962 -149.55273438 247.04882812 C-149.5529558 246.13666118 -149.55317723 245.22449424 -149.55340537 244.28468588 C-149.55734723 229.52839732 -149.57478267 214.77215834 -149.5980939 200.0158889 C-149.62187194 184.84063706 -149.63427276 169.66541 -149.63543582 154.49013925 C-149.63634922 145.98015153 -149.64201611 137.47022832 -149.66025543 128.96025848 C-149.6757441 121.70836135 -149.68072585 114.45654865 -149.67251733 107.20463809 C-149.66864092 103.51213611 -149.66939057 99.81980368 -149.68357468 96.12732315 C-149.79638448 64.89180582 -147.20199133 32.8470384 -124.38867188 9.14575195 C-123.0425412 7.79285328 -121.67791732 6.45843097 -120.3125 5.125 C-119.25482422 4.03638672 -119.25482422 4.03638672 -118.17578125 2.92578125 C-87.24312202 -27.06416837 -32.99808251 -25.4821386 0 0 Z " fill="#144740" transform="translate(801.3125,289.875)"/>
<path d="M0 0 C0.68658691 0.00054382 1.37317383 0.00108765 2.08056641 0.00164795 C12.84203093 0.04083413 22.71361844 0.84611185 32.9375 4.375 C33.56430664 4.58398926 34.19111328 4.79297852 34.83691406 5.00830078 C49.50908172 9.98729006 62.42527812 18.05691459 73.9375 28.375 C74.96037109 29.27412109 74.96037109 29.27412109 76.00390625 30.19140625 C95.96320764 48.86040936 107.07497949 76.03359716 108.16015625 103.0703125 C108.89709975 132.29669181 100.30553034 158.62212031 81.9375 181.375 C81.43734375 182.02855469 80.9371875 182.68210938 80.421875 183.35546875 C65.07231144 202.63063908 39.0436601 214.46242296 15.03173828 217.1940918 C-18.09903055 220.05605259 -47.44075916 210.00833474 -72.8984375 189.0390625 C-87.45745666 176.43755852 -98.28285912 159.74232849 -104.0625 141.375 C-104.25859863 140.75802246 -104.45469727 140.14104492 -104.65673828 139.50537109 C-110.66765119 119.75242017 -110.32627331 97.01483716 -104.0625 77.375 C-103.74104004 76.34826172 -103.74104004 76.34826172 -103.41308594 75.30078125 C-98.68169031 60.61761461 -91.47170714 47.82995438 -81.0625 36.375 C-80.59215332 35.85550781 -80.12180664 35.33601563 -79.63720703 34.80078125 C-64.79915413 18.62254811 -46.420494 7.72083242 -25.0625 2.375 C-24.37567139 2.19839844 -23.68884277 2.02179687 -22.98120117 1.83984375 C-15.36321419 0.07754995 -7.78914846 -0.02318199 0 0 Z " fill="#F56B32" transform="translate(741.0625,-0.375)"/>
</svg>
